<svg width="46" height="46" viewBox="0 0 46 46" fill="none" xmlns="http://www.w3.org/2000/svg">
<path d="M29.4968 14.3387L24.8731 18.1523L24.8731 10.5252L29.4968 14.3387Z" fill="#6C6C6C"/>
<path fill-rule="evenodd" clip-rule="evenodd" d="M16.3672 13.3117H27.2476V15.3117H16.3672C12.0425 15.3117 8.53662 18.8176 8.53662 23.1423C8.53662 27.3717 11.8895 30.8179 16.0823 30.9679V32.9689C10.7848 32.8181 6.53662 28.4763 6.53662 23.1423C6.53662 17.7131 10.9379 13.3117 16.3672 13.3117ZM19.9174 32.9729H29.6327C35.062 32.9729 39.4633 28.5716 39.4633 23.1423C39.4633 18.2057 35.8244 14.1189 31.0826 13.4179V15.4457C34.7146 16.1257 37.4633 19.313 37.4633 23.1423C37.4633 27.4671 33.9574 30.9729 29.6327 30.9729H19.9174V32.9729Z" fill="#6C6C6C"/>
<path d="M17.6895 32.024L22.3132 28.2105L22.3132 35.8375L17.6895 32.024Z" fill="#6C6C6C"/>
</svg>
