<svg id="95ae4947-67a4-4057-915f-23b61dc80594" data-name="레이어 1" xmlns="http://www.w3.org/2000/svg" viewBox="0 0 813.15 212.67"><defs><style>.\34 1cbc72f-ee92-49ce-9677-840af88d5b26{fill:#fff;}</style></defs><title>melon</title><path class="41cbc72f-ee92-49ce-9677-840af88d5b26" d="M102.06,120.06c3.25-6.22,6-11.44,8.72-16.72q21.32-41.81,42.6-83.63c7.14-14,19.52-19.85,33.38-15.92C196.85,6.66,203,14.26,204,25.25c.08.83.13,1.66.13,2.49,0,54.15.11,108.29-.06,162.44,0,13.47-9.19,22.46-21.75,22.44s-21.48-8.91-21.61-22.57c-.27-29-.11-58-.13-87V97.41l-1.28-.2q-7.51,14.25-15,28.5c-6,11.35-12,22.65-17.86,34.05-5.12,10-12.58,16.05-24.33,16.09S82.88,170,77.72,159.9c-9.73-19-19.71-37.78-29.6-56.65a15.9,15.9,0,0,0-4.45-5.77v5.63c0,27.82.1,55.65-.1,83.47a40.07,40.07,0,0,1-2.28,13.64c-3.41,9-13.07,13.69-22.88,12C8.21,210.54,1.12,203.13.25,193.18c-.18-2-.15-4-.15-6q0-78.23,0-156.44a40.32,40.32,0,0,1,.64-8.94C3.1,11.59,9.31,5,19.84,3.22,32,1.16,42.88,5.49,48.23,15.41,57.48,32.54,66.12,50,75,67.34c8.17,16,16.25,32.06,24.38,48.09C99.93,116.6,100.66,117.7,102.06,120.06Z" transform="translate(-0.09 -0.02)"/><path class="41cbc72f-ee92-49ce-9677-840af88d5b26" d="M284.63,148.28A29.65,29.65,0,0,0,311.68,174c12.39,1.14,23.1-2.47,33.31-9.44,11.47-7.84,25.72-2.79,30.61,10.21,3.11,8.27.18,15.09-5.86,20.7-8.9,8.28-19.65,13-31.51,15.24-18.4,3.42-36.57,2.72-54-4.76-25.89-11.15-40.38-31.16-42.81-59.06-2.67-30.71,6.66-56.8,33.61-74.14,29.61-19.05,83.3-13.93,102.08,28.49,4.59,10.37,7.2,21.15,4.2,32.55-1.92,7.3-6.77,11.77-14.09,13.24a62.42,62.42,0,0,1-11.89,1.18c-21.5.12-43,.06-64.5.06ZM287,119.62h50.74c-.31-11-9.69-19.7-21.63-20.49C301.36,98.16,288.87,106.76,287,119.62Z" transform="translate(-0.09 -0.02)"/><path class="41cbc72f-ee92-49ce-9677-840af88d5b26" d="M569.33,62.42c43.52-.2,76.55,32.12,76.71,75.05.16,42.42-32.6,74.77-76.14,75.19S493.24,180.72,493,137.78,525.52,62.62,569.33,62.42Zm33.72,77.06c-.11-26-19.68-42.53-41.55-37.17-13.45,3.29-23,14.09-25,29.24s1.88,28.36,15.29,37c10.78,7,22.42,7.14,33.71,1C598.12,162.66,602.47,151,603.05,139.48Z" transform="translate(-0.09 -0.02)"/><path class="41cbc72f-ee92-49ce-9677-840af88d5b26" d="M718.94,75.63c7.82-4.09,14.28-9,21.54-11,28.76-7.7,64.07,4.06,71.09,45.14a142.84,142.84,0,0,1,1.54,22.38q.28,29.24,0,58.49c-.13,11.94-6.69,19.73-17.48,21.59s-20.59-4.48-23.08-15.1a47.66,47.66,0,0,1-1.14-10.39c-.11-18.32.13-36.66-.17-55a53.52,53.52,0,0,0-2.52-16.13c-2.94-8.66-9.55-13.28-18.87-13.81-10.13-.58-19,2.22-23.22,11.94A57,57,0,0,0,722,134c-.67,17.64-.24,35.32-.39,53a45,45,0,0,1-1.16,10.36,19.52,19.52,0,0,1-20.16,15.27c-9.75-.29-17.23-6.25-19.32-15.73a46.29,46.29,0,0,1-1.06-9.89c-.08-32.32-.13-64.65,0-97A40.29,40.29,0,0,1,682,76.8c2.64-7.36,8.53-11.37,16.27-12.2s14.48,1.5,19.27,8.09c.78,1.07,1.57,2.12,2.38,3.17C720,76,720.2,76,718.94,75.63Z" transform="translate(-0.09 -0.02)"/><path class="41cbc72f-ee92-49ce-9677-840af88d5b26" d="M459.12,109.5c0,26.65,0,53.29,0,79.93,0,9.08-2.88,16.74-11.67,20.92-14.22,6.76-29.27-1.83-30.62-17.45-.24-2.82-.31-5.66-.31-8.48q0-75.18,0-150.37c0-2.66,0-5.33.26-8C417.82,13,425.81,5.59,438.54,5.83c11.92.23,20.35,8.57,20.46,21.25.25,27.47.08,55,.08,82.42Z" transform="translate(-0.09 -0.02)"/><path class="41cbc72f-ee92-49ce-9677-840af88d5b26" d="M657.22,28.42a28.45,28.45,0,0,1-28.16,28.39,28.77,28.77,0,0,1-28.49-28.22,28.33,28.33,0,1,1,56.65-.17Z" transform="translate(-0.09 -0.02)"/></svg>