<svg width="72" height="72" viewBox="0 0 72 72" fill="none" xmlns="http://www.w3.org/2000/svg">
<path fill-rule="evenodd" clip-rule="evenodd" d="M36 68C53.6731 68 68 53.6731 68 36C68 18.3269 53.6731 4 36 4C18.3269 4 4 18.3269 4 36C4 53.6731 18.3269 68 36 68ZM36 72C55.8823 72 72 55.8823 72 36C72 16.1177 55.8823 0 36 0C16.1177 0 0 16.1177 0 36C0 55.8823 16.1177 72 36 72Z" fill="white"/>
<path fill-rule="evenodd" clip-rule="evenodd" d="M38.7176 33.3316C40.2276 34.3829 40.2276 36.6171 38.7176 37.6684L27.7822 45.2818C26.0305 46.5014 23.6304 45.2479 23.6304 43.1134L23.6304 27.8866C23.6304 25.7521 26.0305 24.4986 27.7822 25.7182L38.7176 33.3316ZM37.3757 35.7409C37.5435 35.6241 37.5435 35.3759 37.3757 35.2591L26.4403 27.6457C26.2457 27.5102 25.979 27.6495 25.979 27.8866L25.979 43.1134C25.979 43.3505 26.2457 43.4898 26.4403 43.3543L37.3757 35.7409Z" fill="white"/>
<path fill-rule="evenodd" clip-rule="evenodd" d="M44.2597 25.2249H45.434C47.0554 25.2249 48.3697 26.5393 48.3697 28.1607V42.8393C48.3697 44.4607 47.0554 45.7751 45.434 45.7751H44.2597C42.6383 45.7751 41.324 44.4607 41.324 42.8393V28.1607C41.324 26.5393 42.6383 25.2249 44.2597 25.2249ZM46.0211 28.1607C46.0211 27.8364 45.7583 27.5735 45.434 27.5735H44.2597C43.9354 27.5735 43.6726 27.8364 43.6726 28.1607V42.8393C43.6726 43.1636 43.9354 43.4265 44.2597 43.4265H45.434C45.7583 43.4265 46.0211 43.1636 46.0211 42.8393V28.1607Z" fill="white"/>
</svg>
