<svg width="72" height="72" viewBox="0 0 72 72" fill="none" xmlns="http://www.w3.org/2000/svg">
<path fill-rule="evenodd" clip-rule="evenodd" d="M36 68C53.6731 68 68 53.6731 68 36C68 18.3269 53.6731 4 36 4C18.3269 4 4 18.3269 4 36C4 53.6731 18.3269 68 36 68ZM36 72C55.8823 72 72 55.8823 72 36C72 16.1177 55.8823 0 36 0C16.1177 0 0 16.1177 0 36C0 55.8823 16.1177 72 36 72Z" fill="white"/>
<path fill-rule="evenodd" clip-rule="evenodd" d="M25.9102 18.5H27.9102C30.6716 18.5 32.9102 20.7386 32.9102 23.5V48.5C32.9102 51.2614 30.6716 53.5 27.9102 53.5H25.9102C23.1487 53.5 20.9102 51.2614 20.9102 48.5V23.5C20.9102 20.7386 23.1487 18.5 25.9102 18.5ZM28.9102 23.5C28.9102 22.9477 28.4624 22.5 27.9102 22.5H25.9102C25.3579 22.5 24.9102 22.9477 24.9102 23.5V48.5C24.9102 49.0523 25.3579 49.5 25.9102 49.5H27.9102C28.4624 49.5 28.9102 49.0523 28.9102 48.5V23.5Z" fill="white"/>
<path fill-rule="evenodd" clip-rule="evenodd" d="M44.0898 18.5H46.0898C48.8513 18.5 51.0898 20.7386 51.0898 23.5V48.5C51.0898 51.2614 48.8513 53.5 46.0898 53.5H44.0898C41.3284 53.5 39.0898 51.2614 39.0898 48.5V23.5C39.0898 20.7386 41.3284 18.5 44.0898 18.5ZM47.0898 23.5C47.0898 22.9477 46.6421 22.5 46.0898 22.5H44.0898C43.5376 22.5 43.0898 22.9477 43.0898 23.5V48.5C43.0898 49.0523 43.5376 49.5 44.0898 49.5H46.0898C46.6421 49.5 47.0898 49.0523 47.0898 48.5V23.5Z" fill="white"/>
</svg>
