<svg width="72" height="72" viewBox="0 0 72 72" fill="none" xmlns="http://www.w3.org/2000/svg">
<path fill-rule="evenodd" clip-rule="evenodd" d="M36 68C53.6731 68 68 53.6731 68 36C68 18.3269 53.6731 4 36 4C18.3269 4 4 18.3269 4 36C4 53.6731 18.3269 68 36 68ZM36 72C55.8823 72 72 55.8823 72 36C72 16.1177 55.8823 0 36 0C16.1177 0 0 16.1177 0 36C0 55.8823 16.1177 72 36 72Z" fill="white"/>
<path fill-rule="evenodd" clip-rule="evenodd" d="M51.1957 31.8069C53.7674 33.5974 53.7674 37.4026 51.1957 39.1931L32.5711 52.1599C29.5876 54.237 25.4999 52.1021 25.4999 48.4668L25.4999 22.5332C25.4999 18.8979 29.5876 16.763 32.5711 18.8401L51.1957 31.8069ZM48.9102 35.9103C49.1959 35.7114 49.1959 35.2886 48.9102 35.0897L30.2856 22.1229C29.9541 21.8921 29.4999 22.1293 29.4999 22.5332L29.4999 48.4668C29.4999 48.8707 29.9541 49.1079 30.2856 48.8771L48.9102 35.9103Z" fill="white"/>
</svg>
