<svg width="72" height="72" viewBox="0 0 72 72" fill="none" xmlns="http://www.w3.org/2000/svg">
<path fill-rule="evenodd" clip-rule="evenodd" d="M36 68C53.6731 68 68 53.6731 68 36C68 18.3269 53.6731 4 36 4C18.3269 4 4 18.3269 4 36C4 53.6731 18.3269 68 36 68ZM36 72C55.8823 72 72 55.8823 72 36C72 16.1177 55.8823 0 36 0C16.1177 0 0 16.1177 0 36C0 55.8823 16.1177 72 36 72Z" fill="white"/>
<path fill-rule="evenodd" clip-rule="evenodd" d="M33.2824 33.8316C31.7724 34.8829 31.7724 37.1171 33.2824 38.1684L44.2178 45.7818C45.9695 47.0014 48.3696 45.7479 48.3696 43.6134L48.3696 28.3866C48.3696 26.2521 45.9695 24.9986 44.2178 26.2182L33.2824 33.8316ZM34.6243 36.2409C34.4565 36.1241 34.4565 35.8759 34.6243 35.7591L45.5597 28.1457C45.7543 28.0102 46.021 28.1495 46.021 28.3866L46.021 43.6134C46.021 43.8505 45.7543 43.9898 45.5597 43.8543L34.6243 36.2409Z" fill="white"/>
<path fill-rule="evenodd" clip-rule="evenodd" d="M27.7403 25.7249H26.566C24.9446 25.7249 23.6303 27.0393 23.6303 28.6607V43.3393C23.6303 44.9607 24.9446 46.2751 26.566 46.2751H27.7403C29.3617 46.2751 30.676 44.9607 30.676 43.3393V28.6607C30.676 27.0393 29.3617 25.7249 27.7403 25.7249ZM25.9789 28.6607C25.9789 28.3364 26.2417 28.0735 26.566 28.0735H27.7403C28.0646 28.0735 28.3274 28.3364 28.3274 28.6607V43.3393C28.3274 43.6636 28.0646 43.9265 27.7403 43.9265H26.566C26.2417 43.9265 25.9789 43.6636 25.9789 43.3393V28.6607Z" fill="white"/>
</svg>
