<svg width="46" height="46" viewBox="0 0 46 46" fill="none" xmlns="http://www.w3.org/2000/svg">
<path fill-rule="evenodd" clip-rule="evenodd" d="M39.2881 15.5089L34.6643 18.5717V16.3677C33.458 16.3693 32.0789 16.4591 30.6306 16.8485C28.093 17.5308 25.3003 19.1732 23.374 23.229C21.292 27.6124 17.9751 29.6173 14.6663 30.5148C12.2307 31.1754 9.74438 31.2261 8.04321 31.2608L8.03955 31.2609C7.52393 31.2714 7.08105 31.2804 6.73364 31.3046L6.71191 31.1032V29.6946C7.18262 29.6664 7.69409 29.6556 8.2395 29.6441C9.91577 29.6086 11.9121 29.5664 14.0264 28.993C16.7698 28.2489 19.636 26.5921 21.5054 22.6565C23.626 18.1916 26.8416 16.1734 29.9956 15.3253C31.6689 14.8754 33.3159 14.7666 34.6643 14.7601V12.4461L39.2881 15.5089Z" fill="white"/>
<path fill-rule="evenodd" clip-rule="evenodd" d="M6.71191 16.3944C6.73145 16.3951 6.75098 16.3958 6.77075 16.3965C7.07153 16.4067 7.38574 16.4134 7.71216 16.4203C9.38843 16.4557 11.3848 16.4979 13.499 17.0714C15.9983 17.7493 18.5999 19.1848 20.4563 22.4109L20.5396 22.237C20.6497 22.0054 20.761 21.7768 20.8738 21.5513C21.0601 21.1789 21.25 20.8148 21.4436 20.459C19.4246 17.6869 16.7791 16.2657 14.1389 15.5496C11.7034 14.8889 9.21704 14.8383 7.51587 14.8036C7.22314 14.7976 6.95386 14.7921 6.71191 14.7841V16.3944ZM22.8699 26.4619C24.7961 28.8589 27.1489 30.1154 29.4683 30.739C31.3667 31.2495 33.2312 31.3208 34.6643 31.3019V33.5539L39.2881 30.4911L34.6643 27.4283V29.6922C33.3403 29.7151 31.7673 29.6633 30.1033 29.2159C27.9905 28.6478 25.7007 27.4141 23.8816 24.676C23.5564 25.2952 23.2188 25.8901 22.8699 26.4619Z" fill="white"/>
</svg>
